GRF_file
version=1
nRows=10
nColumns=2
inDegrees=no
range 1 10
endheader
time	force
1	-1.1202587582908
2	0.844382248622951
3	1.43325185820316
4	-0.622762074445094
5	0.524959330793259
6	-0.167131518146377
7	-0.813481986476392
8	-0.321195158122902
9	1.9014560547047
10	-0.407156140759399
